<svg width="36px" height="36px" xmlns="http://www.w3.org/2000/svg" fill="currentColor" viewBox="0 0 232.28 281.18">
    <path class="cls-1" d="M205.16,189.69H43.38c6.11,30.51,12.11,60.61,18.22,90.68.87,4.32,3.93,6.33,8.33,6.33H178.62c4.92,0,7.61-2.52,8.54-7.31,1.78-9.12,3.69-18.21,5.52-27.32C196.82,231.4,200.94,210.75,205.16,189.69Zm-81-15.34q50.34,0,100.68,0a35.45,35.45,0,0,0,6.44-.42c6.44-1.18,10.15-6.82,8.92-13.25-1.16-6-5.47-8.9-13.55-8.9H23.26c-10,0-15.06,3.72-15.15,11.06-.1,7.5,5.24,11.53,15.32,11.54Q73.77,174.37,124.11,174.35Zm.19-68.44C131,93.56,139.73,84.44,151.13,78a5.06,5.06,0,0,0,2-3.14c4.82-23.17-8.77-55.41-29.42-69.3-4.24,4.52-8.9,8.82-12.79,13.74-12.63,16-18,34.15-15.53,54.47.18,1.48.87,3.5,2,4.15C108.63,84.53,117.4,93.59,124.3,105.91Zm-8,31.81c.79-26.47-19.6-50.31-44.65-52.65-13.5-1.26-27.18-.66-40.78-.88-2.43,0-4.86,0-7.58,0,0,1.86-.05,3,0,4.14,1,21.12,17,42.25,38.34,46C79.42,137.5,97.87,136.74,116.33,137.72Zm15.88-1c11.78,0,23.22.18,34.65,0a50,50,0,0,0,31.23-11.41c12.82-10.42,19.38-24,19.89-40.16-14.69,0-29.11-1.47-43.11.33C150.27,88.59,131.22,112.33,132.21,136.73Z" transform="translate(-8.1 -5.52)"/><path d="M205.16,189.69c-4.22,21.06-8.34,41.71-12.48,62.37-1.83,9.11-3.74,18.2-5.52,27.32-.93,4.79-3.62,7.31-8.54,7.31H69.93c-4.4,0-7.46-2-8.33-6.33-6.11-30.07-12.11-60.17-18.22-90.68Z" transform="translate(-8.1 -5.52)"/><path d="M124.11,174.35q-50.34,0-100.68,0c-10.08,0-15.42-4-15.32-11.54.09-7.34,5.17-11.06,15.15-11.06H226.6c8.08,0,12.39,2.86,13.55,8.9,1.23,6.43-2.48,12.07-8.92,13.25a35.45,35.45,0,0,1-6.44.42Q174.45,174.38,124.11,174.35Z" transform="translate(-8.1 -5.52)"/><path d="M124.3,105.91c-6.9-12.32-15.67-21.38-26.95-28-1.11-.65-1.8-2.67-2-4.15-2.49-20.32,2.9-38.51,15.53-54.47,3.89-4.92,8.55-9.22,12.79-13.74,20.65,13.89,34.24,46.13,29.42,69.3a5.06,5.06,0,0,1-2,3.14C139.73,84.44,131,93.56,124.3,105.91Z" transform="translate(-8.1 -5.52)"/><path d="M116.33,137.72c-18.46-1-36.91-.22-54.66-3.36-21.39-3.79-37.35-24.92-38.34-46-.06-1.14,0-2.28,0-4.14,2.72,0,5.15,0,7.58,0,13.6.22,27.28-.38,40.78.88C96.73,87.41,117.12,111.25,116.33,137.72Z" transform="translate(-8.1 -5.52)"/><path d="M132.21,136.73c-1-24.4,18.06-48.14,42.66-51.29,14-1.8,28.42-.33,43.11-.33-.51,16.21-7.07,29.74-19.89,40.16a50,50,0,0,1-31.23,11.41C155.43,136.91,144,136.73,132.21,136.73Z" transform="translate(-8.1 -5.52)"/>
</svg>