<svg width="36px" height="36px" xmlns="http://www.w3.org/2000/svg" fill="currentColor" viewBox="0 0 219.79 215.4">
    <path class="cls-1" d="M323.46,393.23c-4,4.08-7.64,7.91-11.41,11.63-5.86,5.78-5.87,10.18.31,15.48,7.06,6.05,14,12.28,21.45,17.82a41.31,41.31,0,0,0,13.51,6.75c14.49,3.92,29.25,6.26,44.39,5.19,4.48-.32,7-1.79,6.6-6.86-.89-11.08-.72-22.3-2.49-33.22-1.32-8.12-2.14-16.8-8.16-23.6-6.51-7.35-12.58-15.07-19-22.52-5.24-6.12-9.68-6.1-15.47-.22-3.8,3.86-7.63,7.69-11.44,11.53l-12.91-9.57L313.06,381ZM214.39,411.35c-9.15-8.21-18-16.23-27-24.18-2.41-2.15-5.67-4.73-8.1-1.48-1.31,1.75-.84,6.53.69,8.44,14.83,18.38,30,36.5,45.2,54.57,5.23,6.21,9.11,6.1,15,.36,3.63-3.53,7.36-7,11.2-10.59l9.82,10.12L278,432l-10.48-9.76c3.6-3.77,6.88-7.28,10.25-10.71,6.17-6.26,6.07-9.93-.69-15.63q-19.44-16.4-39-32.71c-4.84-4-9.77-8-14.64-12-2.87-2.38-6.38-3.27-9-.71-3,2.91-.06,5.73,1.81,8.22.59.79,1.36,1.45,2,2.2l22,24.61-5.42,7c-9.52-8.36-18.73-16.51-28-24.58-4.3-3.73-10.54-2.72-11.67,2.36-.56,2.51.83,6.21,2.59,8.35,7.57,9.22,15.61,18.06,23.69,27.27ZM271,452.81c1,1.14,1.9,2.12,2.8,3.08,4.14,4.43,10.5,7.33,10,14.93,0,.75,1.08,1.61,1.74,2.36q15.78,18,31.6,36c6.58,7.44,14.85,7.85,21.76,1.18s6.73-15.27-.6-21.81c-12.15-10.85-24.46-21.51-36.75-32.21-1-.83-2.35-1.92-3.38-1.77-4.42.64-6.6-2.28-9.06-5s-4.78-5-7.16-7.51Zm50.1-90.74c-.49-.71-.66-1-.87-1.25-4.63-5.47-12.5-8.62-12.44-17.44,0-.4-.52-.83-.84-1.21-11.05-12.6-22-25.29-33.2-37.75-4.83-5.37-12.24-6.19-17.57-2.61-10.13,6.8-10.76,17.31-1.55,25.36q16.32,14.26,32.62,28.56c2.85,2.49,5.38,5.36,9.9,4.78,1.14-.15,2.68,1.65,3.8,2.79,3.07,3.16,6,6.45,8.85,9.51Z" transform="translate(-178.56 -299.64)"/><path d="M323.46,393.23,313.06,381l15.82-15.39,12.91,9.57c3.81-3.84,7.64-7.67,11.44-11.53,5.79-5.88,10.23-5.9,15.47.22,6.38,7.45,12.45,15.17,19,22.52,6,6.8,6.84,15.48,8.16,23.6,1.77,10.92,1.6,22.14,2.49,33.22.41,5.07-2.12,6.54-6.6,6.86-15.14,1.07-29.9-1.27-44.39-5.19a41.31,41.31,0,0,1-13.51-6.75c-7.45-5.54-14.39-11.77-21.45-17.82-6.18-5.3-6.17-9.7-.31-15.48C315.82,401.14,319.47,397.31,323.46,393.23Z" transform="translate(-178.56 -299.64)"/><path d="M214.39,411.35l7.05-5.42c-8.08-9.21-16.12-18.05-23.69-27.27-1.76-2.14-3.15-5.84-2.59-8.35,1.13-5.08,7.37-6.09,11.67-2.36,9.27,8.07,18.48,16.22,28,24.58l5.42-7-22-24.61c-.67-.75-1.44-1.41-2-2.2-1.87-2.49-4.81-5.31-1.81-8.22,2.63-2.56,6.14-1.67,9,.71,4.87,4,9.8,8,14.64,12q19.5,16.32,39,32.71c6.76,5.7,6.86,9.37.69,15.63-3.37,3.43-6.65,6.94-10.25,10.71L278,432l-16.72,16.57-9.82-10.12c-3.84,3.63-7.57,7.06-11.2,10.59-5.89,5.74-9.77,5.85-15-.36C210,430.63,194.85,412.51,180,394.13c-1.53-1.91-2-6.69-.69-8.44,2.43-3.25,5.69-.67,8.1,1.48C196.36,395.12,205.24,403.14,214.39,411.35Z" transform="translate(-178.56 -299.64)"/><path d="M271,452.81,282,442c2.38,2.49,4.82,4.95,7.16,7.51s4.64,5.62,9.06,5c1-.15,2.42.94,3.38,1.77,12.29,10.7,24.6,21.36,36.75,32.21,7.33,6.54,7.43,15.21.6,21.81s-15.18,6.26-21.76-1.18q-15.84-17.94-31.6-36c-.66-.75-1.78-1.61-1.74-2.36.46-7.6-5.9-10.5-10-14.93C272.88,454.93,272,454,271,452.81Z" transform="translate(-178.56 -299.64)"/><path d="M321.08,362.07l-11.3,10.74c-2.83-3.06-5.78-6.35-8.85-9.51-1.12-1.14-2.66-2.94-3.8-2.79-4.52.58-7.05-2.29-9.9-4.78q-16.31-14.3-32.62-28.56c-9.21-8.05-8.58-18.56,1.55-25.36,5.33-3.58,12.74-2.76,17.57,2.61,11.21,12.46,22.15,25.15,33.2,37.75.32.38.84.81.84,1.21-.06,8.82,7.81,12,12.44,17.44C320.42,361.07,320.59,361.36,321.08,362.07Z" transform="translate(-178.56 -299.64)"/>
</svg>