<svg width="36px" height="36px" xmlns="http://www.w3.org/2000/svg" fill="currentColor" viewBox="0 0 225.24 215.16">
    <path d="M208.32,527.89c2.22-18.08,17-27.22,48.69-29.81,2.13-9.4,8.28-15.35,17.24-18.83.91-.35,1.93-2.78,1.55-3.71-5.26-13.07-10.67-26.08-16.34-39-.44-1-3.18-1.83-4.56-1.51-5.34,1.23-10.52,3.12-15.83,4.46-19,4.79-31.37-2.16-35.71-21.36-2.92-12.92-4-26.26-6.08-39.39-1.27-8-2.86-16-4.41-24.54,2.38.61,5.12,1.27,7.84,2,14.88,4,29.91,7.55,44.6,12.18,21,6.61,29.19,23.66,26.35,48.56-17.11-20.15-38-35-60.79-47.21,7.76,6.74,15.71,13.29,23.25,20.27,24.86,23,43.92,49.83,53,83,.36,1.3,2.1,2.22,3.19,3.32,1.1-1.15,2.89-2.13,3.2-3.46,11-46.3,37.56-82.85,71.64-114.63,9.59-8.95,20-17,29.76-25.86-30,16.45-57.72,35.89-80,62.41l-1.59-.33c.49-7.33.63-14.7,1.52-22,3-24.21,18.48-37,40.61-43.12,17.76-4.93,35.66-9.38,53.49-14.06,3-.79,6-1.69,9.16-2.59-1.68,7.21-3.74,14-4.78,20.95-2.58,17.27-4.47,34.65-7.08,51.92-1.59,10.53-4.29,20.85-11.08,29.49-8,10.16-19,12.8-30.93,10.68-9.75-1.74-19.19-5.15-28.83-7.59-1.3-.33-3.77.18-4.31,1.11a205.89,205.89,0,0,0-22.81,56,8.19,8.19,0,0,0,0,1.85c31.38,12.3,32.48,13.29,42.83,37.76,4.32-3.38,8.38-8.44,13.53-10.06s11.91-1,17.38.56c8.65,2.53,12,10.46,11.05,22.47Z" transform="translate(-192.87 -312.73)"/>
</svg>